<svg width="84" height="82" viewBox="0 0 84 82" fill="none" xmlns="http://www.w3.org/2000/svg">
<g filter="url(#filter0_bd_708_415)">
<path d="M15.6618 72.9164C11.3852 69.4217 10.7514 63.1219 14.246 58.8453C17.7407 54.5687 24.0405 53.9348 28.3171 57.4295C32.5937 60.9241 33.2276 67.2239 29.7329 71.5005C26.2383 75.7771 19.9384 76.411 15.6618 72.9164Z" fill="#0D9999"/>
</g>
<g filter="url(#filter1_bd_708_415)">
<path d="M32.4079 44.8489C28.1313 41.3542 27.4974 35.0544 30.9921 30.7778C34.4867 26.5012 40.7866 25.8673 45.0632 29.3619C49.3398 32.8566 49.9737 39.1564 46.479 43.433C42.9844 47.7096 36.6845 48.3435 32.4079 44.8489Z" fill="#0D9999"/>
</g>
<g filter="url(#filter2_bd_708_415)">
<path d="M59.0891 27.9636C54.8125 24.469 54.1786 18.1691 57.6732 13.8925C61.1679 9.61594 67.4677 8.98204 71.7443 12.4767C76.0209 15.9713 76.6548 22.2712 73.1602 26.5478C69.6655 30.8244 63.3657 31.4583 59.0891 27.9636Z" fill="#0D9999"/>
</g>
<defs>
<filter id="filter0_bd_708_415" x="9.91364" y="53.097" width="24.1517" height="26.2275" filterUnits="userSpaceOnUse" color-interpolation-filters="sRGB">
<feFlood flood-opacity="0" result="BackgroundImageFix"/>
<feGaussianBlur in="BackgroundImageFix" stdDeviation="1.03781"/>
<feComposite in2="SourceAlpha" operator="in" result="effect1_backgroundBlur_708_415"/>
<feColorMatrix in="SourceAlpha" type="matrix" values="0 0 0 0 0 0 0 0 0 0 0 0 0 0 0 0 0 0 127 0" result="hardAlpha"/>
<feOffset dy="2.07562"/>
<feGaussianBlur stdDeviation="1.03781"/>
<feComposite in2="hardAlpha" operator="out"/>
<feColorMatrix type="matrix" values="0 0 0 0 0.786528 0 0 0 0 0.771806 0 0 0 0 0.771806 0 0 0 0.25 0"/>
<feBlend mode="normal" in2="effect1_backgroundBlur_708_415" result="effect2_dropShadow_708_415"/>
<feBlend mode="normal" in="SourceGraphic" in2="effect2_dropShadow_708_415" result="shape"/>
</filter>
<filter id="filter1_bd_708_415" x="26.6597" y="25.0295" width="24.1517" height="26.2275" filterUnits="userSpaceOnUse" color-interpolation-filters="sRGB">
<feFlood flood-opacity="0" result="BackgroundImageFix"/>
<feGaussianBlur in="BackgroundImageFix" stdDeviation="1.03781"/>
<feComposite in2="SourceAlpha" operator="in" result="effect1_backgroundBlur_708_415"/>
<feColorMatrix in="SourceAlpha" type="matrix" values="0 0 0 0 0 0 0 0 0 0 0 0 0 0 0 0 0 0 127 0" result="hardAlpha"/>
<feOffset dy="2.07562"/>
<feGaussianBlur stdDeviation="1.03781"/>
<feComposite in2="hardAlpha" operator="out"/>
<feColorMatrix type="matrix" values="0 0 0 0 0.786528 0 0 0 0 0.771806 0 0 0 0 0.771806 0 0 0 0.25 0"/>
<feBlend mode="normal" in2="effect1_backgroundBlur_708_415" result="effect2_dropShadow_708_415"/>
<feBlend mode="normal" in="SourceGraphic" in2="effect2_dropShadow_708_415" result="shape"/>
</filter>
<filter id="filter2_bd_708_415" x="53.3409" y="8.14423" width="24.1517" height="26.2275" filterUnits="userSpaceOnUse" color-interpolation-filters="sRGB">
<feFlood flood-opacity="0" result="BackgroundImageFix"/>
<feGaussianBlur in="BackgroundImageFix" stdDeviation="1.03781"/>
<feComposite in2="SourceAlpha" operator="in" result="effect1_backgroundBlur_708_415"/>
<feColorMatrix in="SourceAlpha" type="matrix" values="0 0 0 0 0 0 0 0 0 0 0 0 0 0 0 0 0 0 127 0" result="hardAlpha"/>
<feOffset dy="2.07562"/>
<feGaussianBlur stdDeviation="1.03781"/>
<feComposite in2="hardAlpha" operator="out"/>
<feColorMatrix type="matrix" values="0 0 0 0 0.786528 0 0 0 0 0.771806 0 0 0 0 0.771806 0 0 0 0.25 0"/>
<feBlend mode="normal" in2="effect1_backgroundBlur_708_415" result="effect2_dropShadow_708_415"/>
<feBlend mode="normal" in="SourceGraphic" in2="effect2_dropShadow_708_415" result="shape"/>
</filter>
</defs>
</svg>
