<svg width="20" height="28" viewBox="0 0 20 28" fill="none" xmlns="http://www.w3.org/2000/svg">
<path d="M10.0005 0.666016C4.67516 0.666016 0.342773 4.99842 0.342773 10.3236C0.342773 16.9324 8.98539 26.6344 9.35339 27.0441C9.69899 27.4291 10.3025 27.4284 10.6475 27.0441C11.0154 26.6344 19.6581 16.9324 19.6581 10.3236C19.6579 4.99842 15.3257 0.666016 10.0005 0.666016ZM10.0005 15.1827C7.32115 15.1827 5.14147 13.0029 5.14147 10.3236C5.14147 7.64435 7.3212 5.46466 10.0005 5.46466C12.6797 5.46466 14.8594 7.6444 14.8594 10.3237C14.8594 13.0029 12.6797 15.1827 10.0005 15.1827Z" fill="#0D9999"/>
</svg>
